<svg xmlns="http://www.w3.org/2000/svg" viewBox="0 0 1000 300" role="img" aria-labelledby="t d">
  <title id="t">A small test diagram</title>
  <desc id="d">One box that says hello.</desc>
  <rect x="0" y="0" width="1000" height="300" fill="#0b0f17"/>
  <rect x="10" y="20" width="120" height="70" rx="8" fill="#151b26" stroke="#6c788c" stroke-width="2"/>
  <text x="70" y="61" text-anchor="middle" fill="#f2f5f9" font-size="16">Step one</text>
  <rect x="150" y="20" width="120" height="70" rx="8" fill="#151b26" stroke="#6c788c" stroke-width="2"/>
  <text x="210" y="61" text-anchor="middle" fill="#f2f5f9" font-size="16">Step two</text>
  <rect x="290" y="20" width="120" height="70" rx="8" fill="#151b26" stroke="#6c788c" stroke-width="2"/>
  <text x="350" y="61" text-anchor="middle" fill="#f2f5f9" font-size="16">Step three</text>
  <rect x="430" y="20" width="120" height="70" rx="8" fill="#151b26" stroke="#6c788c" stroke-width="2"/>
  <text x="490" y="61" text-anchor="middle" fill="#f2f5f9" font-size="16">Step four</text>
  <rect x="570" y="20" width="120" height="70" rx="8" fill="#151b26" stroke="#6c788c" stroke-width="2"/>
  <text x="630" y="61" text-anchor="middle" fill="#f2f5f9" font-size="16">Step five</text>
  <rect x="710" y="20" width="120" height="70" rx="8" fill="#151b26" stroke="#6c788c" stroke-width="2"/>
  <text x="770" y="61" text-anchor="middle" fill="#f2f5f9" font-size="16">Step six</text>
  <rect x="850" y="20" width="120" height="70" rx="8" fill="#151b26" stroke="#6c788c" stroke-width="2"/>
  <text x="910" y="61" text-anchor="middle" fill="#f2f5f9" font-size="16">Step seven</text>
  <rect x="10" y="150" width="120" height="70" rx="8" fill="#151b26" stroke="#6c788c" stroke-width="2"/>
  <text x="70" y="191" text-anchor="middle" fill="#f2f5f9" font-size="16">Step eight</text>
  <rect x="150" y="150" width="120" height="70" rx="8" fill="#151b26" stroke="#6c788c" stroke-width="2"/>
  <text x="210" y="191" text-anchor="middle" fill="#f2f5f9" font-size="16">Step nine</text>
  <rect x="290" y="150" width="120" height="70" rx="8" fill="#151b26" stroke="#6c788c" stroke-width="2"/>
  <text x="350" y="191" text-anchor="middle" fill="#f2f5f9" font-size="16">Step ten</text>
  <rect x="430" y="150" width="120" height="70" rx="8" fill="#151b26" stroke="#6c788c" stroke-width="2"/>
  <text x="490" y="191" text-anchor="middle" fill="#f2f5f9" font-size="16">Step eleven</text>
  <rect x="570" y="150" width="120" height="70" rx="8" fill="#151b26" stroke="#6c788c" stroke-width="2"/>
  <text x="630" y="191" text-anchor="middle" fill="#f2f5f9" font-size="16">Step twelve</text>
  <rect x="710" y="150" width="120" height="70" rx="8" fill="#151b26" stroke="#6c788c" stroke-width="2"/>
  <text x="770" y="191" text-anchor="middle" fill="#f2f5f9" font-size="16">Step thirteen</text>
</svg>
